inDegrees=no
num_controls=7
num_derivatives=13
num_iterations=128
num_multipliers=7
num_parameters=0
num_slacks=7
num_states=26
objective=5.185957
objective_accelerations=0.368578
objective_balance=0.006817
objective_effort=0.349788
objective_height=4.338884
objective_ligament=0.121890
solver_duration=1072.999129
status=Solve_Succeeded
success=true
DataType=double
version=3
OpenSimVersion=4.4-2022-07-23-0e9fedc
endheader
time	/jointset/ground_pelvis/pelvis_tilt/value	/jointset/ground_pelvis/pelvis_tx/value	/jointset/ground_pelvis/pelvis_ty/value	/jointset/hip_r/hip_flexion_r/value	/jointset/hip_r/hip_adduction_r/value	/jointset/hip_r/hip_rotation_r/value	/jointset/back/lumbar_extension/value	/jointset/patellofemoral_r/patellar_flexion_r/value	/jointset/knee_r/knee_flexion_r/value	/jointset/knee_r/knee_adduction_r/value	/jointset/knee_r/knee_rotation_r/value	/jointset/ankle_r/ankle_angle_r/value	/jointset/subtalar_r/subtalar_angle_r/value	/jointset/ground_pelvis/pelvis_tilt/speed	/jointset/ground_pelvis/pelvis_tx/speed	/jointset/ground_pelvis/pelvis_ty/speed	/jointset/hip_r/hip_flexion_r/speed	/jointset/hip_r/hip_adduction_r/speed	/jointset/hip_r/hip_rotation_r/speed	/jointset/back/lumbar_extension/speed	/jointset/patellofemoral_r/patellar_flexion_r/speed	/jointset/knee_r/knee_flexion_r/speed	/jointset/knee_r/knee_adduction_r/speed	/jointset/knee_r/knee_rotation_r/speed	/jointset/ankle_r/ankle_angle_r/speed	/jointset/subtalar_r/subtalar_angle_r/speed	/forceset/tau_hip_flexion_r	/forceset/tau_hip_adduction_r	/forceset/tau_hip_rotation_r	/forceset/tau_knee_flexion_r	/forceset/tau_ankle_angle_r	/forceset/tau_subtalar_angle_r	/forceset/tau_lumbar_extension	lambda_cid13_p0	lambda_cid14_p0	lambda_cid14_p1	lambda_cid14_p2	lambda_cid14_p3	lambda_cid14_p4	lambda_cid14_p5	/jointset/ground_pelvis/pelvis_tilt/accel	/jointset/ground_pelvis/pelvis_tx/accel	/jointset/ground_pelvis/pelvis_ty/accel	/jointset/hip_r/hip_flexion_r/accel	/jointset/hip_r/hip_adduction_r/accel	/jointset/hip_r/hip_rotation_r/accel	/jointset/back/lumbar_extension/accel	/jointset/patellofemoral_r/patellar_flexion_r/accel	/jointset/knee_r/knee_flexion_r/accel	/jointset/knee_r/knee_adduction_r/accel	/jointset/knee_r/knee_rotation_r/accel	/jointset/ankle_r/ankle_angle_r/accel	/jointset/subtalar_r/subtalar_angle_r/accel	gamma_cid13_p0	gamma_cid14_p0	gamma_cid14_p1	gamma_cid14_p2	gamma_cid14_p3	gamma_cid14_p4	gamma_cid14_p5
1.5	0.009466343749951136	0.06819563868430473	0.8584957325974981	0.5730771452748121	-0.2459646511218986	-0.1020439203004995	-0.6004107500601353	0.8015958434643724	0.801595843464174	0.05776226903673036	0.1742528074140831	0.2917766630813797	0.1017723054628683	0.2224146635845222	0.1536674571516618	0.3318073125463372	-1.368863795710604	0.06815002357418976	-0.42977373917616	0.7977278598023879	-1.605377101474995	-1.605377101475033	0.05574561228114688	0.004142101938909501	-0.5167445518567938	-0.07100943953630244	-0.1005417580462859	-0.004000438471452472	0.02770490016962128	-0.2988436462742834	-0.001911451046377135	-0.0143494015795463	0.1756747428063795	-15.97788499887717	-43.99773256527212	-11.97330532147269	0.08935988227674005	0.3546137874309912	-641.2390895526861	62.37101695754013	-0.09205693396106221	0.3291149895491936	-0.325124013598447	-0.6222768796503184	0.09067335992984937	0.06863904375542662	1.368224675441846	-1.067024678524076	-1.067024678524061	0.6759240298574293	-0.03093243882923333	-0.4100775631489226	0.01574426612447126	4.698801154276185e-08	7.87469899082827e-09	-4.768485620380706e-07	2.557224336330776e-07	4.961572043577515e-08	5.348058994555779e-08	-3.768608867665087e-07
1.51	0.01168561082949793	0.06974860175053028	0.8617968967749284	0.5593590396494837	-0.2452790411726948	-0.1063379833584605	-0.5923660315865692	0.7854907590083695	0.7854907590082038	0.05835410273892004	0.1742931512170166	0.2865892775973223	0.1010625346972699	0.2214097436220379	0.1569071400479613	0.3283610071715202	-1.37458156571087	0.06895576229902614	-0.4290010975537673	0.8111193516016934	-1.615424581322185	-1.615424581322255	0.06262942358727354	0.00392013794913041	-0.5206617583844334	-0.07094583432119356	-0.09542545456879811	-0.005116022688377123	0.02692034550977591	-0.2956959509799468	0.0004205882137073754	-0.01488324147420463	0.1707127112571198	-16.78378043457657	-43.09574586821101	-11.95178643256762	-0.02307942180381404	0.1483979315546793	-638.3114719659766	62.14459308285471	-0.1090585877103991	0.3187010412870139	-0.3640470846305152	-0.5201598841986012	0.07310433619634722	0.08731497767279531	1.310138935898132	-0.9413390307521502	-0.9413390307572405	0.6957967646795129	-0.01875951734427341	-0.3719120989086503	0.001463856956308649	5.113183517218762e-08	1.525706590939968e-08	-4.726030870003458e-07	2.934313501852532e-07	4.494833686049464e-08	6.464752934501671e-08	-3.852374377899406e-07
1.52	0.01389395889737396	0.07133342286604137	0.8650616652415696	0.5455890297593609	-0.2445858577947253	-0.1106231723489775	-0.584190292694265	0.7692916538753169	0.7692916538751663	0.05901501197093211	0.1743310891523826	0.2813648460677218	0.1003533590253764	0.2202308612468045	0.1600390670087718	0.3245281703884658	-1.379244648670515	0.06966470932127597	-0.4279989256836994	0.8239319435499407	-1.624181236886796	-1.624181236886899	0.06956071824094848	0.003660928427669866	-0.5241537609655551	-0.07089042079599149	-0.09030915109137568	-0.00623160690529228	0.02613579084991265	-0.2925482556856175	0.002752627473801391	-0.01541708136884682	0.1657506797078039	-17.58408750767576	-42.19696384969283	-11.92937879737007	-0.1373169631269471	-0.06663591510253986	-635.4354699870059	61.94693427456782	-0.1268494165106494	0.3075638024512506	-0.402430295245941	-0.4113394715260735	0.07131501941260728	0.1145450932905184	1.252444705230291	-0.8088598220083449	-0.8088598220083082	0.6854206993670137	-0.03838154516559571	-0.3250367738454604	0.01410592814312535	5.578860470588238e-08	2.299363289338896e-08	-4.767344242099146e-07	3.342662723984007e-07	4.069795432444229e-08	7.859544303815821e-08	-4.010564327550304e-07
1.53	0.01608970498808758	0.07294899456285114	0.8682862167042023	0.5317776227405061	-0.2438861221461872	-0.1148971387234403	-0.5758895175863495	0.7530114976933275	0.7530114976933254	0.05974556146309105	0.1743662338024936	0.2761076410590295	0.09964463123692753	0.2188886150232409	0.1630539038451844	0.3203204718663166	-1.382852016676914	0.07026499995422267	-0.4267582879985903	0.8361137715386914	-1.631620851334575	-1.631620851334661	0.0765503468126698	0.003361761857407514	-0.5272103224817035	-0.07085554085988005	-0.08506761611699812	-0.007387629654149484	0.02534955225576542	-0.2895817752052737	0.005278406770603592	-0.01603669655100412	0.1606864179198111	-18.37798317454067	-41.24745448539851	-11.94346777564493	-0.2364531587909884	-0.2956102309355093	-632.632619184801	61.71205429376415	-0.1423701961299405	0.2952453180737193	-0.4391662620638299	-0.3077203639277077	0.0517936138163471	0.1343174395268446	1.184655871643088	-0.677152784666304	-0.6771527846639273	0.7058515217158411	-0.02655636446069148	-0.2844143263701182	-0.001912002088474309	6.099037926286294e-08	3.11065374468847e-08	-4.897661244322329e-07	3.784225756263309e-07	3.689063539256986e-08	9.549814191833745e-08	-4.247830244081313e-07
1.54	0.01827113702241063	0.07459407496679182	0.8714668458553412	0.5179356850618456	-0.243180902085575	-0.1191575998543892	-0.5674702033933569	0.7366638172611555	0.7366638172613024	0.06054603075808405	0.1743982123566103	0.2708221807380032	0.09893623404215579	0.2173680499656375	0.1659408084349554	0.3157437080896719	-1.385350780632565	0.07076159173038489	-0.4252978769772459	0.8476397605652786	-1.637686086922492	-1.637686086922562	0.08354467881002177	0.003027709226978504	-0.5298048234326718	-0.07082430206111111	-0.07982608114267797	-0.008543652403019887	0.02456331366179417	-0.2866152947249322	0.007804186067406575	-0.01665631173318594	0.1556221561317716	-19.16489914404476	-40.29987547465024	-11.95629305651581	-0.3376208554187599	-0.5354759004735794	-629.863352890392	61.50727252789272	-0.1625131833183633	0.2819773531227706	-0.4762433461450081	-0.1896186613764785	0.05057524805577841	0.158499760537616	1.121276912797645	-0.5339840500361259	-0.533984050036119	0.6863613844930462	-0.04535875719902189	-0.2326246608096013	0.01337770067464912	6.581128587195817e-08	3.900624377131665e-08	-5.042701779739622e-07	4.203949136485399e-07	3.31782275859614e-08	1.143006513445678e-07	-4.500183519250433e-07
1.55	0.02043657216562926	0.07626733454978744	0.8745999166225937	0.5040742345094192	-0.242471286151178	-0.1234023669555135	-0.5589392228816337	0.7202624036409147	0.7202624036410284	0.06141651591622495	0.174426711326218	0.2655130769706728	0.09822806099965661	0.2156914907176132	0.1686842862414591	0.3108123268090758	-1.386745577765496	0.07114277715197684	-0.4236252427468016	0.858423774636331	-1.642352578689062	-1.642352578689033	0.09054416262010492	0.00267125663283118	-0.5319349762854251	-0.07081090834182728	-0.07444116443956972	-0.009836826041044688	0.02377800564361336	-0.2838533605920199	0.01046325416177779	-0.01730195020709262	0.1504317278881735	-19.94454336443569	-39.31966401105159	-11.97637117189176	-0.4357303281612689	-0.7575556713247904	-627.1948602751612	61.33663082639616	-0.1743465411209973	0.2665152201884922	-0.5102739109965865	-0.08534169108774994	0.02909592304838023	0.1762877645832812	1.037078582925092	-0.3963874999500955	-0.3963874999355074	0.7054552980068339	-0.030834014881074	-0.1910520408212689	-0.004796397252648868	7.019336636718554e-08	4.666030865791423e-08	-5.204706386011001e-07	4.598509439337224e-07	2.957517390193967e-08	1.352920729216831e-07	-4.769920055459114e-07
1.56	0.02258441786726455	0.07796722535600237	0.8776819358986451	0.4902046496953028	-0.2417584172157719	-0.1276294792122941	-0.5503043792434655	0.7038216439510037	0.7038216439510924	0.0623567385961881	0.1744516366690215	0.2601851033861548	0.09751999857339085	0.2138501616465235	0.1712670530788144	0.305533409849404	-1.386977632971891	0.07141219192706803	-0.4217669081049364	0.8684123858540362	-1.645555300854928	-1.645555300854802	0.09749218317981331	0.002312983864344348	-0.5335787868706987	-0.07080217881485897	-0.06905624773648711	-0.01112999967910858	0.02299269762565391	-0.281091426459101	0.01312232225614149	-0.01794758868106504	0.1452412996445595	-20.71689941020261	-38.33980074318177	-11.9950479469241	-0.5357340427579474	-0.9932087336227055	-624.5369240781545	61.19603894000353	-0.1954671479311769	0.2498351592929063	-0.5457504819601298	0.0429297239305249	0.02822111875569861	0.1956398428218699	0.9621963421282757	-0.2412301298954564	-0.2412301298954618	0.6760687344179793	-0.04572279206704862	-0.1353562073138907	0.01244486221158566	7.459321206656492e-08	5.259857843677144e-08	-5.268669941316537e-07	4.980161937631732e-07	2.768832577014416e-08	1.454834606726982e-07	-4.972953166288188e-07
